# Tiled2Unity generated file. Do not modify by hand.
# Wavefront file for 'initial_ma_mesh_0002.obj'

# Vertices (Count = 724)
v -645 -135 0
v -661 -135 0
v -661 -119 0
v -645 -119 0
v -660 -135 0
v -676 -135 0
v -676 -119 0
v -660 -119 0
v -675 -135 0
v -691 -135 0
v -691 -119 0
v -675 -119 0
v -690 -135 0
v -706 -135 0
v -706 -119 0
v -690 -119 0
v -705 -135 0
v -721 -135 0
v -721 -119 0
v -705 -119 0
v -720 -135 0
v -736 -135 0
v -736 -119 0
v -720 -119 0
v -735 -135 0
v -751 -135 0
v -751 -119 0
v -735 -119 0
v -750 -135 0
v -766 -135 0
v -766 -119 0
v -750 -119 0
v -765 -135 0
v -781 -135 0
v -781 -119 0
v -765 -119 0
v -630 -150 0
v -646 -150 0
v -646 -134 0
v -630 -134 0
v -645 -150 0
v -661 -150 0
v -661 -134 0
v -645 -134 0
v -660 -150 0
v -676 -150 0
v -676 -134 0
v -660 -134 0
v -675 -150 0
v -691 -150 0
v -691 -134 0
v -675 -134 0
v -690 -150 0
v -706 -150 0
v -706 -134 0
v -690 -134 0
v -705 -150 0
v -721 -150 0
v -721 -134 0
v -705 -134 0
v -720 -150 0
v -736 -150 0
v -736 -134 0
v -720 -134 0
v -735 -150 0
v -751 -150 0
v -751 -134 0
v -735 -134 0
v -750 -150 0
v -766 -150 0
v -766 -134 0
v -750 -134 0
v -765 -150 0
v -781 -150 0
v -781 -134 0
v -765 -134 0
v -780 -150 0
v -796 -150 0
v -796 -134 0
v -780 -134 0
v -615 -165 0
v -631 -165 0
v -631 -149 0
v -615 -149 0
v -630 -165 0
v -646 -165 0
v -646 -149 0
v -630 -149 0
v -645 -165 0
v -661 -165 0
v -661 -149 0
v -645 -149 0
v -660 -165 0
v -676 -165 0
v -676 -149 0
v -660 -149 0
v -675 -165 0
v -691 -165 0
v -691 -149 0
v -675 -149 0
v -690 -165 0
v -706 -165 0
v -706 -149 0
v -690 -149 0
v -705 -165 0
v -721 -165 0
v -721 -149 0
v -705 -149 0
v -720 -165 0
v -736 -165 0
v -736 -149 0
v -720 -149 0
v -735 -165 0
v -751 -165 0
v -751 -149 0
v -735 -149 0
v -750 -165 0
v -766 -165 0
v -766 -149 0
v -750 -149 0
v -765 -165 0
v -781 -165 0
v -781 -149 0
v -765 -149 0
v -780 -165 0
v -796 -165 0
v -796 -149 0
v -780 -149 0
v -795 -165 0
v -811 -165 0
v -811 -149 0
v -795 -149 0
v -600 -180 0
v -616 -180 0
v -616 -164 0
v -600 -164 0
v -615 -180 0
v -631 -180 0
v -631 -164 0
v -615 -164 0
v -630 -180 0
v -646 -180 0
v -646 -164 0
v -630 -164 0
v -645 -180 0
v -661 -180 0
v -661 -164 0
v -645 -164 0
v -660 -180 0
v -676 -180 0
v -676 -164 0
v -660 -164 0
v -750 -180 0
v -766 -180 0
v -766 -164 0
v -750 -164 0
v -765 -180 0
v -781 -180 0
v -781 -164 0
v -765 -164 0
v -780 -180 0
v -796 -180 0
v -796 -164 0
v -780 -164 0
v -795 -180 0
v -811 -180 0
v -811 -164 0
v -795 -164 0
v -810 -180 0
v -826 -180 0
v -826 -164 0
v -810 -164 0
v -600 -195 0
v -616 -195 0
v -616 -179 0
v -600 -179 0
v -615 -195 0
v -631 -195 0
v -631 -179 0
v -615 -179 0
v -630 -195 0
v -646 -195 0
v -646 -179 0
v -630 -179 0
v -645 -195 0
v -661 -195 0
v -661 -179 0
v -645 -179 0
v -660 -195 0
v -676 -195 0
v -676 -179 0
v -660 -179 0
v -675 -195 0
v -691 -195 0
v -691 -179 0
v -675 -179 0
v -690 -195 0
v -706 -195 0
v -706 -179 0
v -690 -179 0
v -705 -195 0
v -721 -195 0
v -721 -179 0
v -705 -179 0
v -720 -195 0
v -736 -195 0
v -736 -179 0
v -720 -179 0
v -735 -195 0
v -751 -195 0
v -751 -179 0
v -735 -179 0
v -750 -195 0
v -766 -195 0
v -766 -179 0
v -750 -179 0
v -765 -195 0
v -781 -195 0
v -781 -179 0
v -765 -179 0
v -780 -195 0
v -796 -195 0
v -796 -179 0
v -780 -179 0
v -795 -195 0
v -811 -195 0
v -811 -179 0
v -795 -179 0
v -810 -195 0
v -826 -195 0
v -826 -179 0
v -810 -179 0
v -600 -210 0
v -616 -210 0
v -616 -194 0
v -600 -194 0
v -615 -210 0
v -631 -210 0
v -631 -194 0
v -615 -194 0
v -630 -210 0
v -646 -210 0
v -646 -194 0
v -630 -194 0
v -660 -210 0
v -676 -210 0
v -676 -194 0
v -660 -194 0
v -675 -210 0
v -691 -210 0
v -691 -194 0
v -675 -194 0
v -690 -210 0
v -706 -210 0
v -706 -194 0
v -690 -194 0
v -705 -210 0
v -721 -210 0
v -721 -194 0
v -705 -194 0
v -720 -210 0
v -736 -210 0
v -736 -194 0
v -720 -194 0
v -735 -210 0
v -751 -210 0
v -751 -194 0
v -735 -194 0
v -750 -210 0
v -766 -210 0
v -766 -194 0
v -750 -194 0
v -780 -210 0
v -796 -210 0
v -796 -194 0
v -780 -194 0
v -795 -210 0
v -811 -210 0
v -811 -194 0
v -795 -194 0
v -810 -210 0
v -826 -210 0
v -826 -194 0
v -810 -194 0
v -600 -225 0
v -616 -225 0
v -616 -209 0
v -600 -209 0
v -615 -225 0
v -631 -225 0
v -631 -209 0
v -615 -209 0
v -630 -225 0
v -646 -225 0
v -646 -209 0
v -630 -209 0
v -660 -225 0
v -676 -225 0
v -676 -209 0
v -660 -209 0
v -675 -225 0
v -691 -225 0
v -691 -209 0
v -675 -209 0
v -690 -225 0
v -706 -225 0
v -706 -209 0
v -690 -209 0
v -705 -225 0
v -721 -225 0
v -721 -209 0
v -705 -209 0
v -720 -225 0
v -736 -225 0
v -736 -209 0
v -720 -209 0
v -735 -225 0
v -751 -225 0
v -751 -209 0
v -735 -209 0
v -750 -225 0
v -766 -225 0
v -766 -209 0
v -750 -209 0
v -780 -225 0
v -796 -225 0
v -796 -209 0
v -780 -209 0
v -795 -225 0
v -811 -225 0
v -811 -209 0
v -795 -209 0
v -810 -225 0
v -826 -225 0
v -826 -209 0
v -810 -209 0
v -600 -240 0
v -616 -240 0
v -616 -224 0
v -600 -224 0
v -615 -240 0
v -631 -240 0
v -631 -224 0
v -615 -224 0
v -630 -240 0
v -646 -240 0
v -646 -224 0
v -630 -224 0
v -660 -240 0
v -676 -240 0
v -676 -224 0
v -660 -224 0
v -675 -240 0
v -691 -240 0
v -691 -224 0
v -675 -224 0
v -690 -240 0
v -706 -240 0
v -706 -224 0
v -690 -224 0
v -705 -240 0
v -721 -240 0
v -721 -224 0
v -705 -224 0
v -720 -240 0
v -736 -240 0
v -736 -224 0
v -720 -224 0
v -735 -240 0
v -751 -240 0
v -751 -224 0
v -735 -224 0
v -750 -240 0
v -766 -240 0
v -766 -224 0
v -750 -224 0
v -780 -240 0
v -796 -240 0
v -796 -224 0
v -780 -224 0
v -795 -240 0
v -811 -240 0
v -811 -224 0
v -795 -224 0
v -810 -240 0
v -826 -240 0
v -826 -224 0
v -810 -224 0
v -600 -255 0
v -616 -255 0
v -616 -239 0
v -600 -239 0
v -615 -255 0
v -631 -255 0
v -631 -239 0
v -615 -239 0
v -630 -255 0
v -646 -255 0
v -646 -239 0
v -630 -239 0
v -660 -255 0
v -676 -255 0
v -676 -239 0
v -660 -239 0
v -675 -255 0
v -691 -255 0
v -691 -239 0
v -675 -239 0
v -690 -255 0
v -706 -255 0
v -706 -239 0
v -690 -239 0
v -705 -255 0
v -721 -255 0
v -721 -239 0
v -705 -239 0
v -720 -255 0
v -736 -255 0
v -736 -239 0
v -720 -239 0
v -735 -255 0
v -751 -255 0
v -751 -239 0
v -735 -239 0
v -750 -255 0
v -766 -255 0
v -766 -239 0
v -750 -239 0
v -780 -255 0
v -796 -255 0
v -796 -239 0
v -780 -239 0
v -795 -255 0
v -811 -255 0
v -811 -239 0
v -795 -239 0
v -810 -255 0
v -826 -255 0
v -826 -239 0
v -810 -239 0
v -600 -270 0
v -616 -270 0
v -616 -254 0
v -600 -254 0
v -615 -270 0
v -631 -270 0
v -631 -254 0
v -615 -254 0
v -630 -270 0
v -646 -270 0
v -646 -254 0
v -630 -254 0
v -660 -270 0
v -676 -270 0
v -676 -254 0
v -660 -254 0
v -675 -270 0
v -691 -270 0
v -691 -254 0
v -675 -254 0
v -690 -270 0
v -706 -270 0
v -706 -254 0
v -690 -254 0
v -705 -270 0
v -721 -270 0
v -721 -254 0
v -705 -254 0
v -720 -270 0
v -736 -270 0
v -736 -254 0
v -720 -254 0
v -735 -270 0
v -751 -270 0
v -751 -254 0
v -735 -254 0
v -750 -270 0
v -766 -270 0
v -766 -254 0
v -750 -254 0
v -780 -270 0
v -796 -270 0
v -796 -254 0
v -780 -254 0
v -795 -270 0
v -811 -270 0
v -811 -254 0
v -795 -254 0
v -810 -270 0
v -826 -270 0
v -826 -254 0
v -810 -254 0
v -600 -285 0
v -616 -285 0
v -616 -269 0
v -600 -269 0
v -615 -285 0
v -631 -285 0
v -631 -269 0
v -615 -269 0
v -630 -285 0
v -646 -285 0
v -646 -269 0
v -630 -269 0
v -645 -285 0
v -661 -285 0
v -661 -269 0
v -645 -269 0
v -660 -285 0
v -676 -285 0
v -676 -269 0
v -660 -269 0
v -675 -285 0
v -691 -285 0
v -691 -269 0
v -675 -269 0
v -690 -285 0
v -706 -285 0
v -706 -269 0
v -690 -269 0
v -705 -285 0
v -721 -285 0
v -721 -269 0
v -705 -269 0
v -720 -285 0
v -736 -285 0
v -736 -269 0
v -720 -269 0
v -735 -285 0
v -751 -285 0
v -751 -269 0
v -735 -269 0
v -750 -285 0
v -766 -285 0
v -766 -269 0
v -750 -269 0
v -765 -285 0
v -781 -285 0
v -781 -269 0
v -765 -269 0
v -780 -285 0
v -796 -285 0
v -796 -269 0
v -780 -269 0
v -795 -285 0
v -811 -285 0
v -811 -269 0
v -795 -269 0
v -810 -285 0
v -826 -285 0
v -826 -269 0
v -810 -269 0
v -600 -300 0
v -616 -300 0
v -616 -284 0
v -600 -284 0
v -615 -300 0
v -631 -300 0
v -631 -284 0
v -615 -284 0
v -630 -300 0
v -646 -300 0
v -646 -284 0
v -630 -284 0
v -645 -300 0
v -661 -300 0
v -661 -284 0
v -645 -284 0
v -660 -300 0
v -676 -300 0
v -676 -284 0
v -660 -284 0
v -750 -300 0
v -766 -300 0
v -766 -284 0
v -750 -284 0
v -765 -300 0
v -781 -300 0
v -781 -284 0
v -765 -284 0
v -780 -300 0
v -796 -300 0
v -796 -284 0
v -780 -284 0
v -795 -300 0
v -811 -300 0
v -811 -284 0
v -795 -284 0
v -810 -300 0
v -826 -300 0
v -826 -284 0
v -810 -284 0
v -615 -315 0
v -631 -315 0
v -631 -299 0
v -615 -299 0
v -630 -315 0
v -646 -315 0
v -646 -299 0
v -630 -299 0
v -645 -315 0
v -661 -315 0
v -661 -299 0
v -645 -299 0
v -660 -315 0
v -676 -315 0
v -676 -299 0
v -660 -299 0
v -675 -315 0
v -691 -315 0
v -691 -299 0
v -675 -299 0
v -690 -315 0
v -706 -315 0
v -706 -299 0
v -690 -299 0
v -705 -315 0
v -721 -315 0
v -721 -299 0
v -705 -299 0
v -720 -315 0
v -736 -315 0
v -736 -299 0
v -720 -299 0
v -735 -315 0
v -751 -315 0
v -751 -299 0
v -735 -299 0
v -750 -315 0
v -766 -315 0
v -766 -299 0
v -750 -299 0
v -765 -315 0
v -781 -315 0
v -781 -299 0
v -765 -299 0
v -780 -315 0
v -796 -315 0
v -796 -299 0
v -780 -299 0
v -795 -315 0
v -811 -315 0
v -811 -299 0
v -795 -299 0
v -630 -330 0
v -646 -330 0
v -646 -314 0
v -630 -314 0
v -645 -330 0
v -661 -330 0
v -661 -314 0
v -645 -314 0
v -660 -330 0
v -676 -330 0
v -676 -314 0
v -660 -314 0
v -675 -330 0
v -691 -330 0
v -691 -314 0
v -675 -314 0
v -690 -330 0
v -706 -330 0
v -706 -314 0
v -690 -314 0
v -705 -330 0
v -721 -330 0
v -721 -314 0
v -705 -314 0
v -720 -330 0
v -736 -330 0
v -736 -314 0
v -720 -314 0
v -735 -330 0
v -751 -330 0
v -751 -314 0
v -735 -314 0
v -750 -330 0
v -766 -330 0
v -766 -314 0
v -750 -314 0
v -765 -330 0
v -781 -330 0
v -781 -314 0
v -765 -314 0
v -780 -330 0
v -796 -330 0
v -796 -314 0
v -780 -314 0
v -645 -345 0
v -661 -345 0
v -661 -329 0
v -645 -329 0
v -660 -345 0
v -676 -345 0
v -676 -329 0
v -660 -329 0
v -675 -345 0
v -691 -345 0
v -691 -329 0
v -675 -329 0
v -690 -345 0
v -706 -345 0
v -706 -329 0
v -690 -329 0
v -705 -345 0
v -721 -345 0
v -721 -329 0
v -705 -329 0
v -720 -345 0
v -736 -345 0
v -736 -329 0
v -720 -329 0
v -735 -345 0
v -751 -345 0
v -751 -329 0
v -735 -329 0
v -750 -345 0
v -766 -345 0
v -766 -329 0
v -750 -329 0
v -765 -345 0
v -781 -345 0
v -781 -329 0
v -765 -329 0

# Texture cooridinates (Count = 116)
vt 0.03512397 0.9695817
vt 0.05165289 0.9695817
vt 0.05165289 1
vt 0.03512397 1
vt 0.05268595 0.9695817
vt 0.06921487 0.9695817
vt 0.06921487 1
vt 0.05268595 1
vt 0.07024793 0.9695817
vt 0.08677686 0.9695817
vt 0.08677686 1
vt 0.07024793 1
vt 0.01756198 0.904943
vt 0.03409091 0.904943
vt 0.03409091 0.9353612
vt 0.01756198 0.9353612
vt 0.01756198 0.9695817
vt 0.03409091 0.9695817
vt 0.03409091 1
vt 0.01756198 1
vt 0.05268595 0.9372624
vt 0.06921487 0.9372624
vt 0.06921487 0.9676806
vt 0.05268595 0.9676806
vt 0 0.9695817
vt 0.01652892 0.9695817
vt 0.01652892 1
vt 0 1
vt 0 0.904943
vt 0.01652892 0.904943
vt 0.01652892 0.9353612
vt 0 0.9353612
vt 0 0.9372624
vt 0.01652892 0.9372624
vt 0.01652892 0.9676806
vt 0 0.9676806
vt 0.05268595 0.904943
vt 0.06921487 0.904943
vt 0.06921487 0.9353612
vt 0.05268595 0.9353612
vt 0.01756198 0.9372624
vt 0.03409091 0.9372624
vt 0.03409091 0.9676806
vt 0.01756198 0.9676806
vt 0.07024793 0.904943
vt 0.08677686 0.904943
vt 0.08677686 0.9353612
vt 0.07024793 0.9353612
vt 0.03512397 0.904943
vt 0.05165289 0.904943
vt 0.05165289 0.9353612
vt 0.03512397 0.9353612
vt 0.03512397 0.9372624
vt 0.05165289 0.9372624
vt 0.05165289 0.9676806
vt 0.03512397 0.9676806
vt 0.03512397 0.6787072
vt 0.05165289 0.6787072
vt 0.05165289 0.7091255
vt 0.03512397 0.7091255
vt 0.05268595 0.7756654
vt 0.06921487 0.7756654
vt 0.06921487 0.8060837
vt 0.05268595 0.8060837
vt 0.05268595 0.6787072
vt 0.06921487 0.6787072
vt 0.06921487 0.7091255
vt 0.05268595 0.7091255
vt 0.07024793 0.6787072
vt 0.08677686 0.6787072
vt 0.08677686 0.7091255
vt 0.07024793 0.7091255
vt 0.07024793 0.9372624
vt 0.08677686 0.9372624
vt 0.08677686 0.9676806
vt 0.07024793 0.9676806
vt 0.03512397 0.6463878
vt 0.05165289 0.6463878
vt 0.05165289 0.6768061
vt 0.03512397 0.6768061
vt 0.05268595 0.6463878
vt 0.06921487 0.6463878
vt 0.06921487 0.6768061
vt 0.05268595 0.6768061
vt 0.05268595 0.743346
vt 0.06921487 0.743346
vt 0.06921487 0.7737643
vt 0.05268595 0.7737643
vt 0.07024793 0.6463878
vt 0.08677686 0.6463878
vt 0.08677686 0.6768061
vt 0.07024793 0.6768061
vt 0.03512397 0.743346
vt 0.05165289 0.743346
vt 0.05165289 0.7737643
vt 0.03512397 0.7737643
vt 0.07024793 0.743346
vt 0.08677686 0.743346
vt 0.08677686 0.7737643
vt 0.07024793 0.7737643
vt 0.03512397 0.6140684
vt 0.05165289 0.6140684
vt 0.05165289 0.6444867
vt 0.03512397 0.6444867
vt 0.05268595 0.6140684
vt 0.06921487 0.6140684
vt 0.06921487 0.6444867
vt 0.05268595 0.6444867
vt 0.05268595 0.7110266
vt 0.06921487 0.7110266
vt 0.06921487 0.7414448
vt 0.05268595 0.7414448
vt 0.07024793 0.6140684
vt 0.08677686 0.6140684
vt 0.08677686 0.6444867
vt 0.07024793 0.6444867

# Normal
vn 0 0 -1

# Mesh description
g initial_ma_mesh_0002

# Faces
f 1/1/1 2/2/1 3/3/1 4/4/1
f 5/5/1 6/6/1 7/7/1 8/8/1
f 9/5/1 10/6/1 11/7/1 12/8/1
f 13/5/1 14/6/1 15/7/1 16/8/1
f 17/5/1 18/6/1 19/7/1 20/8/1
f 21/5/1 22/6/1 23/7/1 24/8/1
f 25/5/1 26/6/1 27/7/1 28/8/1
f 29/5/1 30/6/1 31/7/1 32/8/1
f 33/9/1 34/10/1 35/11/1 36/12/1
f 37/1/1 38/2/1 39/3/1 40/4/1
f 41/13/1 42/14/1 43/15/1 44/16/1
f 45/17/1 46/18/1 47/19/1 48/20/1
f 49/21/1 50/22/1 51/23/1 52/24/1
f 53/25/1 54/26/1 55/27/1 56/28/1
f 57/25/1 58/26/1 59/27/1 60/28/1
f 61/21/1 62/22/1 63/23/1 64/24/1
f 65/17/1 66/18/1 67/19/1 68/20/1
f 69/17/1 70/18/1 71/19/1 72/20/1
f 73/29/1 74/30/1 75/31/1 76/32/1
f 77/9/1 78/10/1 79/11/1 80/12/1
f 81/1/1 82/2/1 83/3/1 84/4/1
f 85/13/1 86/14/1 87/15/1 88/16/1
f 89/17/1 90/18/1 91/19/1 92/20/1
f 93/33/1 94/34/1 95/35/1 96/36/1
f 97/37/1 98/38/1 99/39/1 100/40/1
f 101/37/1 102/38/1 103/39/1 104/40/1
f 105/37/1 106/38/1 107/39/1 108/40/1
f 109/37/1 110/38/1 111/39/1 112/40/1
f 113/37/1 114/38/1 115/39/1 116/40/1
f 117/41/1 118/42/1 119/43/1 120/44/1
f 121/17/1 122/18/1 123/19/1 124/20/1
f 125/29/1 126/30/1 127/31/1 128/32/1
f 129/9/1 130/10/1 131/11/1 132/12/1
f 133/1/1 134/2/1 135/3/1 136/4/1
f 137/13/1 138/14/1 139/15/1 140/16/1
f 141/25/1 142/26/1 143/27/1 144/28/1
f 145/33/1 146/34/1 147/35/1 148/36/1
f 149/45/1 150/46/1 151/47/1 152/48/1
f 153/49/1 154/50/1 155/51/1 156/52/1
f 157/41/1 158/42/1 159/43/1 160/44/1
f 161/21/1 162/22/1 163/23/1 164/24/1
f 165/29/1 166/30/1 167/31/1 168/32/1
f 169/9/1 170/10/1 171/11/1 172/12/1
f 173/53/1 174/54/1 175/55/1 176/56/1
f 177/25/1 178/26/1 179/27/1 180/28/1
f 181/33/1 182/34/1 183/35/1 184/36/1
f 185/45/1 186/46/1 187/47/1 188/48/1
f 189/57/1 190/58/1 191/59/1 192/60/1
f 193/61/1 194/62/1 195/63/1 196/64/1
f 197/65/1 198/66/1 199/67/1 200/68/1
f 201/61/1 202/62/1 203/63/1 204/64/1
f 205/65/1 206/66/1 207/67/1 208/68/1
f 209/61/1 210/62/1 211/63/1 212/64/1
f 213/69/1 214/70/1 215/71/1 216/72/1
f 217/49/1 218/50/1 219/51/1 220/52/1
f 221/41/1 222/42/1 223/43/1 224/44/1
f 225/25/1 226/26/1 227/27/1 228/28/1
f 229/73/1 230/74/1 231/75/1 232/76/1
f 233/53/1 234/54/1 235/55/1 236/56/1
f 237/21/1 238/22/1 239/23/1 240/24/1
f 241/73/1 242/74/1 243/75/1 244/76/1
f 245/77/1 246/78/1 247/79/1 248/80/1
f 249/81/1 250/82/1 251/83/1 252/84/1
f 253/85/1 254/86/1 255/87/1 256/88/1
f 257/81/1 258/82/1 259/83/1 260/84/1
f 261/81/1 262/82/1 263/83/1 264/84/1
f 265/85/1 266/86/1 267/87/1 268/88/1
f 269/89/1 270/90/1 271/91/1 272/92/1
f 273/53/1 274/54/1 275/55/1 276/56/1
f 277/21/1 278/22/1 279/23/1 280/24/1
f 281/73/1 282/74/1 283/75/1 284/76/1
f 285/53/1 286/54/1 287/55/1 288/56/1
f 289/21/1 290/22/1 291/23/1 292/24/1
f 293/73/1 294/74/1 295/75/1 296/76/1
f 297/93/1 298/94/1 299/95/1 300/96/1
f 301/81/1 302/82/1 303/83/1 304/84/1
f 305/85/1 306/86/1 307/87/1 308/88/1
f 309/81/1 310/82/1 311/83/1 312/84/1
f 313/81/1 314/82/1 315/83/1 316/84/1
f 317/81/1 318/82/1 319/83/1 320/84/1
f 321/89/1 322/90/1 323/91/1 324/92/1
f 325/53/1 326/54/1 327/55/1 328/56/1
f 329/25/1 330/26/1 331/27/1 332/28/1
f 333/73/1 334/74/1 335/75/1 336/76/1
f 337/53/1 338/54/1 339/55/1 340/56/1
f 341/25/1 342/26/1 343/27/1 344/28/1
f 345/73/1 346/74/1 347/75/1 348/76/1
f 349/77/1 350/78/1 351/79/1 352/80/1
f 353/85/1 354/86/1 355/87/1 356/88/1
f 357/85/1 358/86/1 359/87/1 360/88/1
f 361/85/1 362/86/1 363/87/1 364/88/1
f 365/85/1 366/86/1 367/87/1 368/88/1
f 369/81/1 370/82/1 371/83/1 372/84/1
f 373/97/1 374/98/1 375/99/1 376/100/1
f 377/53/1 378/54/1 379/55/1 380/56/1
f 381/25/1 382/26/1 383/27/1 384/28/1
f 385/73/1 386/74/1 387/75/1 388/76/1
f 389/53/1 390/54/1 391/55/1 392/56/1
f 393/17/1 394/18/1 395/19/1 396/20/1
f 397/73/1 398/74/1 399/75/1 400/76/1
f 401/93/1 402/94/1 403/95/1 404/96/1
f 405/85/1 406/86/1 407/87/1 408/88/1
f 409/85/1 410/86/1 411/87/1 412/88/1
f 413/81/1 414/82/1 415/83/1 416/84/1
f 417/85/1 418/86/1 419/87/1 420/88/1
f 421/85/1 422/86/1 423/87/1 424/88/1
f 425/89/1 426/90/1 427/91/1 428/92/1
f 429/53/1 430/54/1 431/55/1 432/56/1
f 433/25/1 434/26/1 435/27/1 436/28/1
f 437/73/1 438/74/1 439/75/1 440/76/1
f 441/53/1 442/54/1 443/55/1 444/56/1
f 445/21/1 446/22/1 447/23/1 448/24/1
f 449/73/1 450/74/1 451/75/1 452/76/1
f 453/77/1 454/78/1 455/79/1 456/80/1
f 457/81/1 458/82/1 459/83/1 460/84/1
f 461/85/1 462/86/1 463/87/1 464/88/1
f 465/81/1 466/82/1 467/83/1 468/84/1
f 469/85/1 470/86/1 471/87/1 472/88/1
f 473/81/1 474/82/1 475/83/1 476/84/1
f 477/97/1 478/98/1 479/99/1 480/100/1
f 481/53/1 482/54/1 483/55/1 484/56/1
f 485/17/1 486/18/1 487/19/1 488/20/1
f 489/73/1 490/74/1 491/75/1 492/76/1
f 493/53/1 494/54/1 495/55/1 496/56/1
f 497/17/1 498/18/1 499/19/1 500/20/1
f 501/29/1 502/30/1 503/31/1 504/32/1
f 505/9/1 506/10/1 507/11/1 508/12/1
f 509/101/1 510/102/1 511/103/1 512/104/1
f 513/105/1 514/106/1 515/107/1 516/108/1
f 517/109/1 518/110/1 519/111/1 520/112/1
f 521/109/1 522/110/1 523/111/1 524/112/1
f 525/105/1 526/106/1 527/107/1 528/108/1
f 529/105/1 530/106/1 531/107/1 532/108/1
f 533/113/1 534/114/1 535/115/1 536/116/1
f 537/1/1 538/2/1 539/3/1 540/4/1
f 541/13/1 542/14/1 543/15/1 544/16/1
f 545/17/1 546/18/1 547/19/1 548/20/1
f 549/73/1 550/74/1 551/75/1 552/76/1
f 553/49/1 554/50/1 555/51/1 556/52/1
f 557/41/1 558/42/1 559/43/1 560/44/1
f 561/17/1 562/18/1 563/19/1 564/20/1
f 565/29/1 566/30/1 567/31/1 568/32/1
f 569/9/1 570/10/1 571/11/1 572/12/1
f 573/1/1 574/2/1 575/3/1 576/4/1
f 577/13/1 578/14/1 579/15/1 580/16/1
f 581/17/1 582/18/1 583/19/1 584/20/1
f 585/33/1 586/34/1 587/35/1 588/36/1
f 589/45/1 590/46/1 591/47/1 592/48/1
f 593/49/1 594/50/1 595/51/1 596/52/1
f 597/41/1 598/42/1 599/43/1 600/44/1
f 601/25/1 602/26/1 603/27/1 604/28/1
f 605/29/1 606/30/1 607/31/1 608/32/1
f 609/5/1 610/6/1 611/7/1 612/8/1
f 613/5/1 614/6/1 615/7/1 616/8/1
f 617/5/1 618/6/1 619/7/1 620/8/1
f 621/5/1 622/6/1 623/7/1 624/8/1
f 625/5/1 626/6/1 627/7/1 628/8/1
f 629/13/1 630/14/1 631/15/1 632/16/1
f 633/21/1 634/22/1 635/23/1 636/24/1
f 637/33/1 638/34/1 639/35/1 640/36/1
f 641/45/1 642/46/1 643/47/1 644/48/1
f 645/49/1 646/50/1 647/51/1 648/52/1
f 649/41/1 650/42/1 651/43/1 652/44/1
f 653/25/1 654/26/1 655/27/1 656/28/1
f 657/25/1 658/26/1 659/27/1 660/28/1
f 661/25/1 662/26/1 663/27/1 664/28/1
f 665/17/1 666/18/1 667/19/1 668/20/1
f 669/17/1 670/18/1 671/19/1 672/20/1
f 673/21/1 674/22/1 675/23/1 676/24/1
f 677/21/1 678/22/1 679/23/1 680/24/1
f 681/33/1 682/34/1 683/35/1 684/36/1
f 685/45/1 686/46/1 687/47/1 688/48/1
f 689/49/1 690/50/1 691/51/1 692/52/1
f 693/37/1 694/38/1 695/39/1 696/40/1
f 697/37/1 698/38/1 699/39/1 700/40/1
f 701/37/1 702/38/1 703/39/1 704/40/1
f 705/37/1 706/38/1 707/39/1 708/40/1
f 709/37/1 710/38/1 711/39/1 712/40/1
f 713/37/1 714/38/1 715/39/1 716/40/1
f 717/37/1 718/38/1 719/39/1 720/40/1
f 721/45/1 722/46/1 723/47/1 724/48/1

