# Tiled2Unity generated file. Do not modify by hand.
# Wavefront file for 'phase1_mesh_0018.obj'

# Vertices (Count = 88)
v -624 -624 0
v -672 -624 0
v -672 -576 0
v -624 -576 0
v -624 -672 0
v -672 -672 0
v -672 -624 0
v -624 -624 0
v -816 -720 0
v -864 -720 0
v -864 -672 0
v -816 -672 0
v -816 -768 0
v -864 -768 0
v -864 -720 0
v -816 -720 0
v -240 -816 0
v -288 -816 0
v -288 -768 0
v -240 -768 0
v -288 -816 0
v -336 -816 0
v -336 -768 0
v -288 -768 0
v -240 -864 0
v -288 -864 0
v -288 -816 0
v -240 -816 0
v -288 -864 0
v -336 -864 0
v -336 -816 0
v -288 -816 0
v -528 -912 0
v -576 -912 0
v -576 -864 0
v -528 -864 0
v -528 -960 0
v -576 -960 0
v -576 -912 0
v -528 -912 0
v -336 -1056 0
v -384 -1056 0
v -384 -1008 0
v -336 -1008 0
v -144 -1104 0
v -192 -1104 0
v -192 -1056 0
v -144 -1056 0
v -336 -1104 0
v -384 -1104 0
v -384 -1056 0
v -336 -1056 0
v -144 -1152 0
v -192 -1152 0
v -192 -1104 0
v -144 -1104 0
v -336 -1200 0
v -384 -1200 0
v -384 -1152 0
v -336 -1152 0
v -336 -1248 0
v -384 -1248 0
v -384 -1200 0
v -336 -1200 0
v -432 -1344 0
v -480 -1344 0
v -480 -1296 0
v -432 -1296 0
v -432 -1392 0
v -480 -1392 0
v -480 -1344 0
v -432 -1344 0
v -144 -1488 0
v -192 -1488 0
v -192 -1440 0
v -144 -1440 0
v -384 -1488 0
v -432 -1488 0
v -432 -1440 0
v -384 -1440 0
v -144 -1536 0
v -192 -1536 0
v -192 -1488 0
v -144 -1488 0
v -384 -1536 0
v -432 -1536 0
v -432 -1488 0
v -384 -1488 0

# Texture cooridinates (Count = 21)
vt 0.5625 0.625
vt 0.625 0.625
vt 0.625 0.6875
vt 0.5625 0.6875
vt 0.5625 0.5625
vt 0.625 0.5625
vt 0.6875 0.3125
vt 0.75 0.3125
vt 0.75 0.375
vt 0.6875 0.375
vt 0.8125 0.3125
vt 0.8125 0.375
vt 0.6875 0.25
vt 0.75 0.25
vt 0.8125 0.25
vt 0.6875 0.625
vt 0.75 0.625
vt 0.75 0.6875
vt 0.6875 0.6875
vt 0.6875 0.5625
vt 0.75 0.5625

# Normal
vn 0 0 -1

# Mesh description
g phase1_mesh_0018

# Faces
f 1/1/1 2/2/1 3/3/1 4/4/1
f 5/5/1 6/6/1 7/2/1 8/1/1
f 9/1/1 10/2/1 11/3/1 12/4/1
f 13/5/1 14/6/1 15/2/1 16/1/1
f 17/7/1 18/8/1 19/9/1 20/10/1
f 21/8/1 22/11/1 23/12/1 24/9/1
f 25/13/1 26/14/1 27/8/1 28/7/1
f 29/14/1 30/15/1 31/11/1 32/8/1
f 33/1/1 34/2/1 35/3/1 36/4/1
f 37/5/1 38/6/1 39/2/1 40/1/1
f 41/16/1 42/17/1 43/18/1 44/19/1
f 45/16/1 46/17/1 47/18/1 48/19/1
f 49/20/1 50/21/1 51/17/1 52/16/1
f 53/20/1 54/21/1 55/17/1 56/16/1
f 57/1/1 58/2/1 59/3/1 60/4/1
f 61/5/1 62/6/1 63/2/1 64/1/1
f 65/1/1 66/2/1 67/3/1 68/4/1
f 69/5/1 70/6/1 71/2/1 72/1/1
f 73/16/1 74/17/1 75/18/1 76/19/1
f 77/16/1 78/17/1 79/18/1 80/19/1
f 81/20/1 82/21/1 83/17/1 84/16/1
f 85/20/1 86/21/1 87/17/1 88/16/1

