# Tiled2Unity generated file. Do not modify by hand.
# Wavefront file for 'phase1_mesh_0012.obj'

# Vertices (Count = 208)
v -1776 -192 0
v -1824 -192 0
v -1824 -144 0
v -1776 -144 0
v -1680 -240 0
v -1728 -240 0
v -1728 -192 0
v -1680 -192 0
v -1728 -240 0
v -1776 -240 0
v -1776 -192 0
v -1728 -192 0
v -1776 -240 0
v -1824 -240 0
v -1824 -192 0
v -1776 -192 0
v -1872 -240 0
v -1920 -240 0
v -1920 -192 0
v -1872 -192 0
v -1632 -288 0
v -1680 -288 0
v -1680 -240 0
v -1632 -240 0
v -1824 -336 0
v -1872 -336 0
v -1872 -288 0
v -1824 -288 0
v -1680 -384 0
v -1728 -384 0
v -1728 -336 0
v -1680 -336 0
v -1824 -432 0
v -1872 -432 0
v -1872 -384 0
v -1824 -384 0
v -1680 -480 0
v -1728 -480 0
v -1728 -432 0
v -1680 -432 0
v -144 -576 0
v -192 -576 0
v -192 -528 0
v -144 -528 0
v -192 -576 0
v -240 -576 0
v -240 -528 0
v -192 -528 0
v -240 -576 0
v -288 -576 0
v -288 -528 0
v -240 -528 0
v -576 -576 0
v -624 -576 0
v -624 -528 0
v -576 -528 0
v -96 -624 0
v -144 -624 0
v -144 -576 0
v -96 -576 0
v -144 -624 0
v -192 -624 0
v -192 -576 0
v -144 -576 0
v -240 -624 0
v -288 -624 0
v -288 -576 0
v -240 -576 0
v -480 -624 0
v -528 -624 0
v -528 -576 0
v -480 -576 0
v -48 -672 0
v -96 -672 0
v -96 -624 0
v -48 -624 0
v -192 -672 0
v -240 -672 0
v -240 -624 0
v -192 -624 0
v -288 -672 0
v -336 -672 0
v -336 -624 0
v -288 -624 0
v -48 -720 0
v -96 -720 0
v -96 -672 0
v -48 -672 0
v -192 -720 0
v -240 -720 0
v -240 -672 0
v -192 -672 0
v -288 -720 0
v -336 -720 0
v -336 -672 0
v -288 -672 0
v -336 -720 0
v -384 -720 0
v -384 -672 0
v -336 -672 0
v -384 -720 0
v -432 -720 0
v -432 -672 0
v -384 -672 0
v 0 -768 0
v -48 -768 0
v -48 -720 0
v 0 -720 0
v -48 -768 0
v -96 -768 0
v -96 -720 0
v -48 -720 0
v -192 -768 0
v -240 -768 0
v -240 -720 0
v -192 -720 0
v -288 -768 0
v -336 -768 0
v -336 -720 0
v -288 -720 0
v 0 -816 0
v -48 -816 0
v -48 -768 0
v 0 -768 0
v -240 -816 0
v -288 -816 0
v -288 -768 0
v -240 -768 0
v -96 -864 0
v -144 -864 0
v -144 -816 0
v -96 -816 0
v -144 -864 0
v -192 -864 0
v -192 -816 0
v -144 -816 0
v -240 -864 0
v -288 -864 0
v -288 -816 0
v -240 -816 0
v 0 -912 0
v -48 -912 0
v -48 -864 0
v 0 -864 0
v -48 -912 0
v -96 -912 0
v -96 -864 0
v -48 -864 0
v -96 -912 0
v -144 -912 0
v -144 -864 0
v -96 -864 0
v -144 -912 0
v -192 -912 0
v -192 -864 0
v -144 -864 0
v -144 -1104 0
v -192 -1104 0
v -192 -1056 0
v -144 -1056 0
v -144 -1152 0
v -192 -1152 0
v -192 -1104 0
v -144 -1104 0
v -192 -1152 0
v -240 -1152 0
v -240 -1104 0
v -192 -1104 0
v 0 -1200 0
v -48 -1200 0
v -48 -1152 0
v 0 -1152 0
v -48 -1200 0
v -96 -1200 0
v -96 -1152 0
v -48 -1152 0
v 0 -1248 0
v -48 -1248 0
v -48 -1200 0
v 0 -1200 0
v -48 -1248 0
v -96 -1248 0
v -96 -1200 0
v -48 -1200 0
v -96 -1248 0
v -144 -1248 0
v -144 -1200 0
v -96 -1200 0
v -240 -1248 0
v -288 -1248 0
v -288 -1200 0
v -240 -1200 0
v 0 -1296 0
v -48 -1296 0
v -48 -1248 0
v 0 -1248 0
v -48 -1296 0
v -96 -1296 0
v -96 -1248 0
v -48 -1248 0
v -192 -1296 0
v -240 -1296 0
v -240 -1248 0
v -192 -1248 0
v -240 -1296 0
v -288 -1296 0
v -288 -1248 0
v -240 -1248 0

# Texture cooridinates (Count = 10)
vt 0.875 0.9166667
vt 0.9375 0.9166667
vt 0.9375 1
vt 0.875 1
vt 0.875 0.6666666
vt 0.9375 0.6666666
vt 0.9375 0.75
vt 0.875 0.75
vt 1 0.9166667
vt 1 1

# Normal
vn 0 0 -1

# Mesh description
g phase1_mesh_0012

# Faces
f 1/1/1 2/2/1 3/3/1 4/4/1
f 5/5/1 6/6/1 7/7/1 8/8/1
f 9/1/1 10/2/1 11/3/1 12/4/1
f 13/1/1 14/2/1 15/3/1 16/4/1
f 17/1/1 18/2/1 19/3/1 20/4/1
f 21/1/1 22/2/1 23/3/1 24/4/1
f 25/1/1 26/2/1 27/3/1 28/4/1
f 29/5/1 30/6/1 31/7/1 32/8/1
f 33/5/1 34/6/1 35/7/1 36/8/1
f 37/1/1 38/2/1 39/3/1 40/4/1
f 41/2/1 42/9/1 43/10/1 44/3/1
f 45/2/1 46/9/1 47/10/1 48/3/1
f 49/2/1 50/9/1 51/10/1 52/3/1
f 53/5/1 54/6/1 55/7/1 56/8/1
f 57/2/1 58/9/1 59/10/1 60/3/1
f 61/5/1 62/6/1 63/7/1 64/8/1
f 65/2/1 66/9/1 67/10/1 68/3/1
f 69/5/1 70/6/1 71/7/1 72/8/1
f 73/2/1 74/9/1 75/10/1 76/3/1
f 77/2/1 78/9/1 79/10/1 80/3/1
f 81/2/1 82/9/1 83/10/1 84/3/1
f 85/5/1 86/6/1 87/7/1 88/8/1
f 89/2/1 90/9/1 91/10/1 92/3/1
f 93/2/1 94/9/1 95/10/1 96/3/1
f 97/2/1 98/9/1 99/10/1 100/3/1
f 101/5/1 102/6/1 103/7/1 104/8/1
f 105/2/1 106/9/1 107/10/1 108/3/1
f 109/5/1 110/6/1 111/7/1 112/8/1
f 113/5/1 114/6/1 115/7/1 116/8/1
f 117/2/1 118/9/1 119/10/1 120/3/1
f 121/5/1 122/6/1 123/7/1 124/8/1
f 125/2/1 126/9/1 127/10/1 128/3/1
f 129/2/1 130/9/1 131/10/1 132/3/1
f 133/2/1 134/9/1 135/10/1 136/3/1
f 137/2/1 138/9/1 139/10/1 140/3/1
f 141/2/1 142/9/1 143/10/1 144/3/1
f 145/2/1 146/9/1 147/10/1 148/3/1
f 149/2/1 150/9/1 151/10/1 152/3/1
f 153/2/1 154/9/1 155/10/1 156/3/1
f 157/2/1 158/9/1 159/10/1 160/3/1
f 161/2/1 162/9/1 163/10/1 164/3/1
f 165/2/1 166/9/1 167/10/1 168/3/1
f 169/2/1 170/9/1 171/10/1 172/3/1
f 173/2/1 174/9/1 175/10/1 176/3/1
f 177/2/1 178/9/1 179/10/1 180/3/1
f 181/2/1 182/9/1 183/10/1 184/3/1
f 185/2/1 186/9/1 187/10/1 188/3/1
f 189/2/1 190/9/1 191/10/1 192/3/1
f 193/2/1 194/9/1 195/10/1 196/3/1
f 197/2/1 198/9/1 199/10/1 200/3/1
f 201/2/1 202/9/1 203/10/1 204/3/1
f 205/2/1 206/9/1 207/10/1 208/3/1

