# Tiled2Unity generated file. Do not modify by hand.
# Wavefront file for 'phase1_mesh_0019.obj'

# Vertices (Count = 304)
v -1776 -432 0
v -1824 -432 0
v -1824 -384 0
v -1776 -384 0
v -1872 -432 0
v -1920 -432 0
v -1920 -384 0
v -1872 -384 0
v -2016 -432 0
v -2064 -432 0
v -2064 -384 0
v -2016 -384 0
v -1776 -480 0
v -1824 -480 0
v -1824 -432 0
v -1776 -432 0
v -1872 -480 0
v -1920 -480 0
v -1920 -432 0
v -1872 -432 0
v -1920 -480 0
v -1968 -480 0
v -1968 -432 0
v -1920 -432 0
v -1968 -480 0
v -2016 -480 0
v -2016 -432 0
v -1968 -432 0
v -2016 -480 0
v -2064 -480 0
v -2064 -432 0
v -2016 -432 0
v -1920 -528 0
v -1968 -528 0
v -1968 -480 0
v -1920 -480 0
v -1968 -528 0
v -2016 -528 0
v -2016 -480 0
v -1968 -480 0
v -2016 -576 0
v -2064 -576 0
v -2064 -528 0
v -2016 -528 0
v -1824 -624 0
v -1872 -624 0
v -1872 -576 0
v -1824 -576 0
v -1872 -624 0
v -1920 -624 0
v -1920 -576 0
v -1872 -576 0
v -1920 -624 0
v -1968 -624 0
v -1968 -576 0
v -1920 -576 0
v -1968 -624 0
v -2016 -624 0
v -2016 -576 0
v -1968 -576 0
v -2016 -624 0
v -2064 -624 0
v -2064 -576 0
v -2016 -576 0
v -1824 -672 0
v -1872 -672 0
v -1872 -624 0
v -1824 -624 0
v -1872 -672 0
v -1920 -672 0
v -1920 -624 0
v -1872 -624 0
v -1920 -672 0
v -1968 -672 0
v -1968 -624 0
v -1920 -624 0
v -1968 -672 0
v -2016 -672 0
v -2016 -624 0
v -1968 -624 0
v -720 -768 0
v -768 -768 0
v -768 -720 0
v -720 -720 0
v -768 -768 0
v -816 -768 0
v -816 -720 0
v -768 -720 0
v -816 -768 0
v -864 -768 0
v -864 -720 0
v -816 -720 0
v -672 -816 0
v -720 -816 0
v -720 -768 0
v -672 -768 0
v -720 -816 0
v -768 -816 0
v -768 -768 0
v -720 -768 0
v -768 -816 0
v -816 -816 0
v -816 -768 0
v -768 -768 0
v -816 -816 0
v -864 -816 0
v -864 -768 0
v -816 -768 0
v -384 -864 0
v -432 -864 0
v -432 -816 0
v -384 -816 0
v -624 -864 0
v -672 -864 0
v -672 -816 0
v -624 -816 0
v -672 -864 0
v -720 -864 0
v -720 -816 0
v -672 -816 0
v -240 -912 0
v -288 -912 0
v -288 -864 0
v -240 -864 0
v -288 -912 0
v -336 -912 0
v -336 -864 0
v -288 -864 0
v -384 -912 0
v -432 -912 0
v -432 -864 0
v -384 -864 0
v -576 -912 0
v -624 -912 0
v -624 -864 0
v -576 -864 0
v -624 -912 0
v -672 -912 0
v -672 -864 0
v -624 -864 0
v -144 -960 0
v -192 -960 0
v -192 -912 0
v -144 -912 0
v -192 -960 0
v -240 -960 0
v -240 -912 0
v -192 -912 0
v -240 -960 0
v -288 -960 0
v -288 -912 0
v -240 -912 0
v -288 -960 0
v -336 -960 0
v -336 -912 0
v -288 -912 0
v -336 -960 0
v -384 -960 0
v -384 -912 0
v -336 -912 0
v -432 -960 0
v -480 -960 0
v -480 -912 0
v -432 -912 0
v -480 -960 0
v -528 -960 0
v -528 -912 0
v -480 -912 0
v -528 -960 0
v -576 -960 0
v -576 -912 0
v -528 -912 0
v -576 -960 0
v -624 -960 0
v -624 -912 0
v -576 -912 0
v -144 -1008 0
v -192 -1008 0
v -192 -960 0
v -144 -960 0
v -192 -1008 0
v -240 -1008 0
v -240 -960 0
v -192 -960 0
v -336 -1008 0
v -384 -1008 0
v -384 -960 0
v -336 -960 0
v -432 -1008 0
v -480 -1008 0
v -480 -960 0
v -432 -960 0
v -480 -1008 0
v -528 -1008 0
v -528 -960 0
v -480 -960 0
v -528 -1008 0
v -576 -1008 0
v -576 -960 0
v -528 -960 0
v -384 -1056 0
v -432 -1056 0
v -432 -1008 0
v -384 -1008 0
v -192 -1104 0
v -240 -1104 0
v -240 -1056 0
v -192 -1056 0
v -240 -1104 0
v -288 -1104 0
v -288 -1056 0
v -240 -1056 0
v -288 -1104 0
v -336 -1104 0
v -336 -1056 0
v -288 -1056 0
v -336 -1104 0
v -384 -1104 0
v -384 -1056 0
v -336 -1056 0
v -384 -1104 0
v -432 -1104 0
v -432 -1056 0
v -384 -1056 0
v -144 -1152 0
v -192 -1152 0
v -192 -1104 0
v -144 -1104 0
v -192 -1152 0
v -240 -1152 0
v -240 -1104 0
v -192 -1104 0
v -240 -1152 0
v -288 -1152 0
v -288 -1104 0
v -240 -1104 0
v -288 -1152 0
v -336 -1152 0
v -336 -1104 0
v -288 -1104 0
v -336 -1152 0
v -384 -1152 0
v -384 -1104 0
v -336 -1104 0
v -144 -1200 0
v -192 -1200 0
v -192 -1152 0
v -144 -1152 0
v -432 -1392 0
v -480 -1392 0
v -480 -1344 0
v -432 -1344 0
v -288 -1440 0
v -336 -1440 0
v -336 -1392 0
v -288 -1392 0
v -432 -1440 0
v -480 -1440 0
v -480 -1392 0
v -432 -1392 0
v -192 -1488 0
v -240 -1488 0
v -240 -1440 0
v -192 -1440 0
v -240 -1488 0
v -288 -1488 0
v -288 -1440 0
v -240 -1440 0
v -288 -1488 0
v -336 -1488 0
v -336 -1440 0
v -288 -1440 0
v -336 -1488 0
v -384 -1488 0
v -384 -1440 0
v -336 -1440 0
v -144 -1536 0
v -192 -1536 0
v -192 -1488 0
v -144 -1488 0
v -192 -1536 0
v -240 -1536 0
v -240 -1488 0
v -192 -1488 0
v -240 -1536 0
v -288 -1536 0
v -288 -1488 0
v -240 -1488 0
v -336 -1536 0
v -384 -1536 0
v -384 -1488 0
v -336 -1488 0
v -384 -1536 0
v -432 -1536 0
v -432 -1488 0
v -384 -1488 0
v -144 -1584 0
v -192 -1584 0
v -192 -1536 0
v -144 -1536 0
v -384 -1584 0
v -432 -1584 0
v -432 -1536 0
v -384 -1536 0

# Texture cooridinates (Count = 6)
vt 0.6 0.2
vt 0.8 0.2
vt 0.8 0.4
vt 0.6 0.4
vt 0.6 0
vt 0.8 0

# Normal
vn 0 0 -1

# Mesh description
g phase1_mesh_0019

# Faces
f 1/1/1 2/2/1 3/3/1 4/4/1
f 5/1/1 6/2/1 7/3/1 8/4/1
f 9/1/1 10/2/1 11/3/1 12/4/1
f 13/5/1 14/6/1 15/2/1 16/1/1
f 17/5/1 18/6/1 19/2/1 20/1/1
f 21/1/1 22/2/1 23/3/1 24/4/1
f 25/1/1 26/2/1 27/3/1 28/4/1
f 29/5/1 30/6/1 31/2/1 32/1/1
f 33/5/1 34/6/1 35/2/1 36/1/1
f 37/5/1 38/6/1 39/2/1 40/1/1
f 41/1/1 42/2/1 43/3/1 44/4/1
f 45/1/1 46/2/1 47/3/1 48/4/1
f 49/1/1 50/2/1 51/3/1 52/4/1
f 53/1/1 54/2/1 55/3/1 56/4/1
f 57/1/1 58/2/1 59/3/1 60/4/1
f 61/5/1 62/6/1 63/2/1 64/1/1
f 65/5/1 66/6/1 67/2/1 68/1/1
f 69/5/1 70/6/1 71/2/1 72/1/1
f 73/5/1 74/6/1 75/2/1 76/1/1
f 77/5/1 78/6/1 79/2/1 80/1/1
f 81/1/1 82/2/1 83/3/1 84/4/1
f 85/1/1 86/2/1 87/3/1 88/4/1
f 89/1/1 90/2/1 91/3/1 92/4/1
f 93/1/1 94/2/1 95/3/1 96/4/1
f 97/5/1 98/6/1 99/2/1 100/1/1
f 101/5/1 102/6/1 103/2/1 104/1/1
f 105/5/1 106/6/1 107/2/1 108/1/1
f 109/1/1 110/2/1 111/3/1 112/4/1
f 113/1/1 114/2/1 115/3/1 116/4/1
f 117/5/1 118/6/1 119/2/1 120/1/1
f 121/1/1 122/2/1 123/3/1 124/4/1
f 125/1/1 126/2/1 127/3/1 128/4/1
f 129/5/1 130/6/1 131/2/1 132/1/1
f 133/1/1 134/2/1 135/3/1 136/4/1
f 137/5/1 138/6/1 139/2/1 140/1/1
f 141/1/1 142/2/1 143/3/1 144/4/1
f 145/1/1 146/2/1 147/3/1 148/4/1
f 149/5/1 150/6/1 151/2/1 152/1/1
f 153/5/1 154/6/1 155/2/1 156/1/1
f 157/1/1 158/2/1 159/3/1 160/4/1
f 161/1/1 162/2/1 163/3/1 164/4/1
f 165/1/1 166/2/1 167/3/1 168/4/1
f 169/1/1 170/2/1 171/3/1 172/4/1
f 173/5/1 174/6/1 175/2/1 176/1/1
f 177/5/1 178/6/1 179/2/1 180/1/1
f 181/5/1 182/6/1 183/2/1 184/1/1
f 185/5/1 186/6/1 187/2/1 188/1/1
f 189/5/1 190/6/1 191/2/1 192/1/1
f 193/5/1 194/6/1 195/2/1 196/1/1
f 197/5/1 198/6/1 199/2/1 200/1/1
f 201/1/1 202/2/1 203/3/1 204/4/1
f 205/1/1 206/2/1 207/3/1 208/4/1
f 209/1/1 210/2/1 211/3/1 212/4/1
f 213/1/1 214/2/1 215/3/1 216/4/1
f 217/1/1 218/2/1 219/3/1 220/4/1
f 221/5/1 222/6/1 223/2/1 224/1/1
f 225/1/1 226/2/1 227/3/1 228/4/1
f 229/5/1 230/6/1 231/2/1 232/1/1
f 233/5/1 234/6/1 235/2/1 236/1/1
f 237/5/1 238/6/1 239/2/1 240/1/1
f 241/5/1 242/6/1 243/2/1 244/1/1
f 245/5/1 246/6/1 247/2/1 248/1/1
f 249/1/1 250/2/1 251/3/1 252/4/1
f 253/1/1 254/2/1 255/3/1 256/4/1
f 257/5/1 258/6/1 259/2/1 260/1/1
f 261/1/1 262/2/1 263/3/1 264/4/1
f 265/1/1 266/2/1 267/3/1 268/4/1
f 269/5/1 270/6/1 271/2/1 272/1/1
f 273/1/1 274/2/1 275/3/1 276/4/1
f 277/1/1 278/2/1 279/3/1 280/4/1
f 281/5/1 282/6/1 283/2/1 284/1/1
f 285/5/1 286/6/1 287/2/1 288/1/1
f 289/5/1 290/6/1 291/2/1 292/1/1
f 293/1/1 294/2/1 295/3/1 296/4/1
f 297/5/1 298/6/1 299/2/1 300/1/1
f 301/5/1 302/6/1 303/2/1 304/1/1

