# Tiled2Unity generated file. Do not modify by hand.
# Wavefront file for 'phase1_mesh_0010.obj'

# Vertices (Count = 740)
v -1824 -144 0
v -1872 -144 0
v -1872 -96 0
v -1824 -96 0
v -1872 -144 0
v -1920 -144 0
v -1920 -96 0
v -1872 -96 0
v -1680 -192 0
v -1728 -192 0
v -1728 -144 0
v -1680 -144 0
v -1728 -192 0
v -1776 -192 0
v -1776 -144 0
v -1728 -144 0
v -1776 -192 0
v -1824 -192 0
v -1824 -144 0
v -1776 -144 0
v -1824 -192 0
v -1872 -192 0
v -1872 -144 0
v -1824 -144 0
v -1872 -192 0
v -1920 -192 0
v -1920 -144 0
v -1872 -144 0
v -1680 -240 0
v -1728 -240 0
v -1728 -192 0
v -1680 -192 0
v -1728 -240 0
v -1776 -240 0
v -1776 -192 0
v -1728 -192 0
v -1776 -240 0
v -1824 -240 0
v -1824 -192 0
v -1776 -192 0
v -1824 -240 0
v -1872 -240 0
v -1872 -192 0
v -1824 -192 0
v -1872 -240 0
v -1920 -240 0
v -1920 -192 0
v -1872 -192 0
v -1632 -288 0
v -1680 -288 0
v -1680 -240 0
v -1632 -240 0
v -1680 -288 0
v -1728 -288 0
v -1728 -240 0
v -1680 -240 0
v -1728 -288 0
v -1776 -288 0
v -1776 -240 0
v -1728 -240 0
v -1776 -288 0
v -1824 -288 0
v -1824 -240 0
v -1776 -240 0
v -1824 -288 0
v -1872 -288 0
v -1872 -240 0
v -1824 -240 0
v -1872 -288 0
v -1920 -288 0
v -1920 -240 0
v -1872 -240 0
v -1632 -336 0
v -1680 -336 0
v -1680 -288 0
v -1632 -288 0
v -1680 -336 0
v -1728 -336 0
v -1728 -288 0
v -1680 -288 0
v -1728 -336 0
v -1776 -336 0
v -1776 -288 0
v -1728 -288 0
v -1776 -336 0
v -1824 -336 0
v -1824 -288 0
v -1776 -288 0
v -1824 -336 0
v -1872 -336 0
v -1872 -288 0
v -1824 -288 0
v -1872 -336 0
v -1920 -336 0
v -1920 -288 0
v -1872 -288 0
v -1680 -384 0
v -1728 -384 0
v -1728 -336 0
v -1680 -336 0
v -1728 -384 0
v -1776 -384 0
v -1776 -336 0
v -1728 -336 0
v -1776 -384 0
v -1824 -384 0
v -1824 -336 0
v -1776 -336 0
v -1824 -384 0
v -1872 -384 0
v -1872 -336 0
v -1824 -336 0
v -1680 -432 0
v -1728 -432 0
v -1728 -384 0
v -1680 -384 0
v -1728 -432 0
v -1776 -432 0
v -1776 -384 0
v -1728 -384 0
v -1776 -432 0
v -1824 -432 0
v -1824 -384 0
v -1776 -384 0
v -1824 -432 0
v -1872 -432 0
v -1872 -384 0
v -1824 -384 0
v -1872 -432 0
v -1920 -432 0
v -1920 -384 0
v -1872 -384 0
v -1680 -480 0
v -1728 -480 0
v -1728 -432 0
v -1680 -432 0
v -1728 -480 0
v -1776 -480 0
v -1776 -432 0
v -1728 -432 0
v -1776 -480 0
v -1824 -480 0
v -1824 -432 0
v -1776 -432 0
v -1824 -480 0
v -1872 -480 0
v -1872 -432 0
v -1824 -432 0
v -1872 -480 0
v -1920 -480 0
v -1920 -432 0
v -1872 -432 0
v -432 -528 0
v -480 -528 0
v -480 -480 0
v -432 -480 0
v -480 -528 0
v -528 -528 0
v -528 -480 0
v -480 -480 0
v -1680 -528 0
v -1728 -528 0
v -1728 -480 0
v -1680 -480 0
v -1728 -528 0
v -1776 -528 0
v -1776 -480 0
v -1728 -480 0
v -1776 -528 0
v -1824 -528 0
v -1824 -480 0
v -1776 -480 0
v -1824 -528 0
v -1872 -528 0
v -1872 -480 0
v -1824 -480 0
v -96 -576 0
v -144 -576 0
v -144 -528 0
v -96 -528 0
v -144 -576 0
v -192 -576 0
v -192 -528 0
v -144 -528 0
v -192 -576 0
v -240 -576 0
v -240 -528 0
v -192 -528 0
v -240 -576 0
v -288 -576 0
v -288 -528 0
v -240 -528 0
v -288 -576 0
v -336 -576 0
v -336 -528 0
v -288 -528 0
v -336 -576 0
v -384 -576 0
v -384 -528 0
v -336 -528 0
v -384 -576 0
v -432 -576 0
v -432 -528 0
v -384 -528 0
v -432 -576 0
v -480 -576 0
v -480 -528 0
v -432 -528 0
v -480 -576 0
v -528 -576 0
v -528 -528 0
v -480 -528 0
v -528 -576 0
v -576 -576 0
v -576 -528 0
v -528 -528 0
v -576 -576 0
v -624 -576 0
v -624 -528 0
v -576 -528 0
v -624 -576 0
v -672 -576 0
v -672 -528 0
v -624 -528 0
v 0 -624 0
v -48 -624 0
v -48 -576 0
v 0 -576 0
v -48 -624 0
v -96 -624 0
v -96 -576 0
v -48 -576 0
v -96 -624 0
v -144 -624 0
v -144 -576 0
v -96 -576 0
v -144 -624 0
v -192 -624 0
v -192 -576 0
v -144 -576 0
v -192 -624 0
v -240 -624 0
v -240 -576 0
v -192 -576 0
v -240 -624 0
v -288 -624 0
v -288 -576 0
v -240 -576 0
v -288 -624 0
v -336 -624 0
v -336 -576 0
v -288 -576 0
v -336 -624 0
v -384 -624 0
v -384 -576 0
v -336 -576 0
v -384 -624 0
v -432 -624 0
v -432 -576 0
v -384 -576 0
v -432 -624 0
v -480 -624 0
v -480 -576 0
v -432 -576 0
v -480 -624 0
v -528 -624 0
v -528 -576 0
v -480 -576 0
v -528 -624 0
v -576 -624 0
v -576 -576 0
v -528 -576 0
v -576 -624 0
v -624 -624 0
v -624 -576 0
v -576 -576 0
v -624 -624 0
v -672 -624 0
v -672 -576 0
v -624 -576 0
v -672 -624 0
v -720 -624 0
v -720 -576 0
v -672 -576 0
v 0 -672 0
v -48 -672 0
v -48 -624 0
v 0 -624 0
v -48 -672 0
v -96 -672 0
v -96 -624 0
v -48 -624 0
v -96 -672 0
v -144 -672 0
v -144 -624 0
v -96 -624 0
v -144 -672 0
v -192 -672 0
v -192 -624 0
v -144 -624 0
v -192 -672 0
v -240 -672 0
v -240 -624 0
v -192 -624 0
v -240 -672 0
v -288 -672 0
v -288 -624 0
v -240 -624 0
v -288 -672 0
v -336 -672 0
v -336 -624 0
v -288 -624 0
v -336 -672 0
v -384 -672 0
v -384 -624 0
v -336 -624 0
v -384 -672 0
v -432 -672 0
v -432 -624 0
v -384 -624 0
v -432 -672 0
v -480 -672 0
v -480 -624 0
v -432 -624 0
v -480 -672 0
v -528 -672 0
v -528 -624 0
v -480 -624 0
v -528 -672 0
v -576 -672 0
v -576 -624 0
v -528 -624 0
v -576 -672 0
v -624 -672 0
v -624 -624 0
v -576 -624 0
v -624 -672 0
v -672 -672 0
v -672 -624 0
v -624 -624 0
v -672 -672 0
v -720 -672 0
v -720 -624 0
v -672 -624 0
v 0 -720 0
v -48 -720 0
v -48 -672 0
v 0 -672 0
v -48 -720 0
v -96 -720 0
v -96 -672 0
v -48 -672 0
v -96 -720 0
v -144 -720 0
v -144 -672 0
v -96 -672 0
v -144 -720 0
v -192 -720 0
v -192 -672 0
v -144 -672 0
v -192 -720 0
v -240 -720 0
v -240 -672 0
v -192 -672 0
v -240 -720 0
v -288 -720 0
v -288 -672 0
v -240 -672 0
v -288 -720 0
v -336 -720 0
v -336 -672 0
v -288 -672 0
v -336 -720 0
v -384 -720 0
v -384 -672 0
v -336 -672 0
v -384 -720 0
v -432 -720 0
v -432 -672 0
v -384 -672 0
v -432 -720 0
v -480 -720 0
v -480 -672 0
v -432 -672 0
v -480 -720 0
v -528 -720 0
v -528 -672 0
v -480 -672 0
v -528 -720 0
v -576 -720 0
v -576 -672 0
v -528 -672 0
v 0 -768 0
v -48 -768 0
v -48 -720 0
v 0 -720 0
v -48 -768 0
v -96 -768 0
v -96 -720 0
v -48 -720 0
v -96 -768 0
v -144 -768 0
v -144 -720 0
v -96 -720 0
v -144 -768 0
v -192 -768 0
v -192 -720 0
v -144 -720 0
v -192 -768 0
v -240 -768 0
v -240 -720 0
v -192 -720 0
v -240 -768 0
v -288 -768 0
v -288 -720 0
v -240 -720 0
v -288 -768 0
v -336 -768 0
v -336 -720 0
v -288 -720 0
v -336 -768 0
v -384 -768 0
v -384 -720 0
v -336 -720 0
v -384 -768 0
v -432 -768 0
v -432 -720 0
v -384 -720 0
v -432 -768 0
v -480 -768 0
v -480 -720 0
v -432 -720 0
v -480 -768 0
v -528 -768 0
v -528 -720 0
v -480 -720 0
v 0 -816 0
v -48 -816 0
v -48 -768 0
v 0 -768 0
v -48 -816 0
v -96 -816 0
v -96 -768 0
v -48 -768 0
v -96 -816 0
v -144 -816 0
v -144 -768 0
v -96 -768 0
v -144 -816 0
v -192 -816 0
v -192 -768 0
v -144 -768 0
v -192 -816 0
v -240 -816 0
v -240 -768 0
v -192 -768 0
v -240 -816 0
v -288 -816 0
v -288 -768 0
v -240 -768 0
v -288 -816 0
v -336 -816 0
v -336 -768 0
v -288 -768 0
v -336 -816 0
v -384 -816 0
v -384 -768 0
v -336 -768 0
v -384 -816 0
v -432 -816 0
v -432 -768 0
v -384 -768 0
v -432 -816 0
v -480 -816 0
v -480 -768 0
v -432 -768 0
v 0 -864 0
v -48 -864 0
v -48 -816 0
v 0 -816 0
v -48 -864 0
v -96 -864 0
v -96 -816 0
v -48 -816 0
v -96 -864 0
v -144 -864 0
v -144 -816 0
v -96 -816 0
v -144 -864 0
v -192 -864 0
v -192 -816 0
v -144 -816 0
v -192 -864 0
v -240 -864 0
v -240 -816 0
v -192 -816 0
v -240 -864 0
v -288 -864 0
v -288 -816 0
v -240 -816 0
v -288 -864 0
v -336 -864 0
v -336 -816 0
v -288 -816 0
v -336 -864 0
v -384 -864 0
v -384 -816 0
v -336 -816 0
v -384 -864 0
v -432 -864 0
v -432 -816 0
v -384 -816 0
v 0 -912 0
v -48 -912 0
v -48 -864 0
v 0 -864 0
v -48 -912 0
v -96 -912 0
v -96 -864 0
v -48 -864 0
v -96 -912 0
v -144 -912 0
v -144 -864 0
v -96 -864 0
v -144 -912 0
v -192 -912 0
v -192 -864 0
v -144 -864 0
v -192 -912 0
v -240 -912 0
v -240 -864 0
v -192 -864 0
v -240 -912 0
v -288 -912 0
v -288 -864 0
v -240 -864 0
v 0 -960 0
v -48 -960 0
v -48 -912 0
v 0 -912 0
v -48 -960 0
v -96 -960 0
v -96 -912 0
v -48 -912 0
v -96 -960 0
v -144 -960 0
v -144 -912 0
v -96 -912 0
v -144 -960 0
v -192 -960 0
v -192 -912 0
v -144 -912 0
v -192 -960 0
v -240 -960 0
v -240 -912 0
v -192 -912 0
v -240 -960 0
v -288 -960 0
v -288 -912 0
v -240 -912 0
v 0 -1008 0
v -48 -1008 0
v -48 -960 0
v 0 -960 0
v -48 -1008 0
v -96 -1008 0
v -96 -960 0
v -48 -960 0
v -96 -1008 0
v -144 -1008 0
v -144 -960 0
v -96 -960 0
v -144 -1008 0
v -192 -1008 0
v -192 -960 0
v -144 -960 0
v -192 -1008 0
v -240 -1008 0
v -240 -960 0
v -192 -960 0
v 0 -1056 0
v -48 -1056 0
v -48 -1008 0
v 0 -1008 0
v -144 -1104 0
v -192 -1104 0
v -192 -1056 0
v -144 -1056 0
v -192 -1104 0
v -240 -1104 0
v -240 -1056 0
v -192 -1056 0
v -144 -1152 0
v -192 -1152 0
v -192 -1104 0
v -144 -1104 0
v -192 -1152 0
v -240 -1152 0
v -240 -1104 0
v -192 -1104 0
v -240 -1152 0
v -288 -1152 0
v -288 -1104 0
v -240 -1104 0
v 0 -1200 0
v -48 -1200 0
v -48 -1152 0
v 0 -1152 0
v -48 -1200 0
v -96 -1200 0
v -96 -1152 0
v -48 -1152 0
v -96 -1200 0
v -144 -1200 0
v -144 -1152 0
v -96 -1152 0
v -144 -1200 0
v -192 -1200 0
v -192 -1152 0
v -144 -1152 0
v -192 -1200 0
v -240 -1200 0
v -240 -1152 0
v -192 -1152 0
v -240 -1200 0
v -288 -1200 0
v -288 -1152 0
v -240 -1152 0
v -288 -1200 0
v -336 -1200 0
v -336 -1152 0
v -288 -1152 0
v 0 -1248 0
v -48 -1248 0
v -48 -1200 0
v 0 -1200 0
v -48 -1248 0
v -96 -1248 0
v -96 -1200 0
v -48 -1200 0
v -96 -1248 0
v -144 -1248 0
v -144 -1200 0
v -96 -1200 0
v -144 -1248 0
v -192 -1248 0
v -192 -1200 0
v -144 -1200 0
v -192 -1248 0
v -240 -1248 0
v -240 -1200 0
v -192 -1200 0
v -240 -1248 0
v -288 -1248 0
v -288 -1200 0
v -240 -1200 0
v -288 -1248 0
v -336 -1248 0
v -336 -1200 0
v -288 -1200 0
v 0 -1296 0
v -48 -1296 0
v -48 -1248 0
v 0 -1248 0
v -48 -1296 0
v -96 -1296 0
v -96 -1248 0
v -48 -1248 0
v -96 -1296 0
v -144 -1296 0
v -144 -1248 0
v -96 -1248 0
v -144 -1296 0
v -192 -1296 0
v -192 -1248 0
v -144 -1248 0
v -192 -1296 0
v -240 -1296 0
v -240 -1248 0
v -192 -1248 0
v -240 -1296 0
v -288 -1296 0
v -288 -1248 0
v -240 -1248 0
v -288 -1296 0
v -336 -1296 0
v -336 -1248 0
v -288 -1248 0
v 0 -1344 0
v -48 -1344 0
v -48 -1296 0
v 0 -1296 0
v -48 -1344 0
v -96 -1344 0
v -96 -1296 0
v -48 -1296 0
v -96 -1344 0
v -144 -1344 0
v -144 -1296 0
v -96 -1296 0
v -144 -1344 0
v -192 -1344 0
v -192 -1296 0
v -144 -1296 0
v -192 -1344 0
v -240 -1344 0
v -240 -1296 0
v -192 -1296 0
v -240 -1344 0
v -288 -1344 0
v -288 -1296 0
v -240 -1296 0
v 0 -1392 0
v -48 -1392 0
v -48 -1344 0
v 0 -1344 0
v -48 -1392 0
v -96 -1392 0
v -96 -1344 0
v -48 -1344 0
v -96 -1392 0
v -144 -1392 0
v -144 -1344 0
v -96 -1344 0
v -192 -1392 0
v -240 -1392 0
v -240 -1344 0
v -192 -1344 0
v -240 -1392 0
v -288 -1392 0
v -288 -1344 0
v -240 -1344 0
v 0 -1440 0
v -48 -1440 0
v -48 -1392 0
v 0 -1392 0
v -240 -1440 0
v -288 -1440 0
v -288 -1392 0
v -240 -1392 0

# Texture cooridinates (Count = 15)
vt 0.625 0.8666667
vt 0.6875 0.8666667
vt 0.6875 0.9333333
vt 0.625 0.9333333
vt 0.75 0.8666667
vt 0.75 0.9333333
vt 0.625 0.8
vt 0.6875 0.8
vt 0.75 0.8
vt 0.6875 1
vt 0.625 1
vt 0.6875 0.7333333
vt 0.75 0.7333333
vt 0.625 0.7333333
vt 0.75 1

# Normal
vn 0 0 -1

# Mesh description
g phase1_mesh_0010

# Faces
f 1/1/1 2/2/1 3/3/1 4/4/1
f 5/2/1 6/5/1 7/6/1 8/3/1
f 9/1/1 10/2/1 11/3/1 12/4/1
f 13/1/1 14/2/1 15/3/1 16/4/1
f 17/2/1 18/5/1 19/6/1 20/3/1
f 21/2/1 22/5/1 23/6/1 24/3/1
f 25/2/1 26/5/1 27/6/1 28/3/1
f 29/7/1 30/8/1 31/2/1 32/1/1
f 33/1/1 34/2/1 35/3/1 36/4/1
f 37/7/1 38/8/1 39/2/1 40/1/1
f 41/8/1 42/9/1 43/5/1 44/2/1
f 45/8/1 46/9/1 47/5/1 48/2/1
f 49/1/1 50/2/1 51/3/1 52/4/1
f 53/7/1 54/8/1 55/2/1 56/1/1
f 57/7/1 58/8/1 59/2/1 60/1/1
f 61/8/1 62/9/1 63/5/1 64/2/1
f 65/4/1 66/3/1 67/10/1 68/11/1
f 69/12/1 70/13/1 71/9/1 72/8/1
f 73/12/1 74/13/1 75/9/1 76/8/1
f 77/1/1 78/2/1 79/3/1 80/4/1
f 81/14/1 82/12/1 83/8/1 84/7/1
f 85/4/1 86/3/1 87/10/1 88/11/1
f 89/4/1 90/3/1 91/10/1 92/11/1
f 93/12/1 94/13/1 95/9/1 96/8/1
f 97/7/1 98/8/1 99/2/1 100/1/1
f 101/8/1 102/9/1 103/5/1 104/2/1
f 105/14/1 106/12/1 107/8/1 108/7/1
f 109/12/1 110/13/1 111/9/1 112/8/1
f 113/1/1 114/2/1 115/3/1 116/4/1
f 117/7/1 118/8/1 119/2/1 120/1/1
f 121/8/1 122/9/1 123/5/1 124/2/1
f 125/2/1 126/5/1 127/6/1 128/3/1
f 129/8/1 130/9/1 131/5/1 132/2/1
f 133/7/1 134/8/1 135/2/1 136/1/1
f 137/8/1 138/9/1 139/5/1 140/2/1
f 141/7/1 142/8/1 143/2/1 144/1/1
f 145/8/1 146/9/1 147/5/1 148/2/1
f 149/12/1 150/13/1 151/9/1 152/8/1
f 153/1/1 154/2/1 155/3/1 156/4/1
f 157/2/1 158/5/1 159/6/1 160/3/1
f 161/14/1 162/12/1 163/8/1 164/7/1
f 165/12/1 166/13/1 167/9/1 168/8/1
f 169/14/1 170/12/1 171/8/1 172/7/1
f 173/12/1 174/13/1 175/9/1 176/8/1
f 177/4/1 178/3/1 179/10/1 180/11/1
f 181/4/1 182/3/1 183/10/1 184/11/1
f 185/4/1 186/3/1 187/10/1 188/11/1
f 189/1/1 190/2/1 191/3/1 192/4/1
f 193/2/1 194/5/1 195/6/1 196/3/1
f 197/1/1 198/2/1 199/3/1 200/4/1
f 201/2/1 202/5/1 203/6/1 204/3/1
f 205/3/1 206/6/1 207/15/1 208/10/1
f 209/3/1 210/6/1 211/15/1 212/10/1
f 213/3/1 214/6/1 215/15/1 216/10/1
f 217/3/1 218/6/1 219/15/1 220/10/1
f 221/2/1 222/5/1 223/6/1 224/3/1
f 225/4/1 226/3/1 227/10/1 228/11/1
f 229/4/1 230/3/1 231/10/1 232/11/1
f 233/4/1 234/3/1 235/10/1 236/11/1
f 237/4/1 238/3/1 239/10/1 240/11/1
f 241/4/1 242/3/1 243/10/1 244/11/1
f 245/4/1 246/3/1 247/10/1 248/11/1
f 249/3/1 250/6/1 251/15/1 252/10/1
f 253/3/1 254/6/1 255/15/1 256/10/1
f 257/3/1 258/6/1 259/15/1 260/10/1
f 261/4/1 262/3/1 263/10/1 264/11/1
f 265/3/1 266/6/1 267/15/1 268/10/1
f 269/4/1 270/3/1 271/10/1 272/11/1
f 273/8/1 274/9/1 275/5/1 276/2/1
f 277/7/1 278/8/1 279/2/1 280/1/1
f 281/2/1 282/5/1 283/6/1 284/3/1
f 285/4/1 286/3/1 287/10/1 288/11/1
f 289/4/1 290/3/1 291/10/1 292/11/1
f 293/4/1 294/3/1 295/10/1 296/11/1
f 297/4/1 298/3/1 299/10/1 300/11/1
f 301/4/1 302/3/1 303/10/1 304/11/1
f 305/4/1 306/3/1 307/10/1 308/11/1
f 309/3/1 310/6/1 311/15/1 312/10/1
f 313/3/1 314/6/1 315/15/1 316/10/1
f 317/4/1 318/3/1 319/10/1 320/11/1
f 321/3/1 322/6/1 323/15/1 324/10/1
f 325/3/1 326/6/1 327/15/1 328/10/1
f 329/8/1 330/9/1 331/5/1 332/2/1
f 333/14/1 334/12/1 335/8/1 336/7/1
f 337/14/1 338/12/1 339/8/1 340/7/1
f 341/12/1 342/13/1 343/9/1 344/8/1
f 345/4/1 346/3/1 347/10/1 348/11/1
f 349/4/1 350/3/1 351/10/1 352/11/1
f 353/4/1 354/3/1 355/10/1 356/11/1
f 357/4/1 358/3/1 359/10/1 360/11/1
f 361/4/1 362/3/1 363/10/1 364/11/1
f 365/4/1 366/3/1 367/10/1 368/11/1
f 369/3/1 370/6/1 371/15/1 372/10/1
f 373/3/1 374/6/1 375/15/1 376/10/1
f 377/3/1 378/6/1 379/15/1 380/10/1
f 381/3/1 382/6/1 383/15/1 384/10/1
f 385/8/1 386/9/1 387/5/1 388/2/1
f 389/12/1 390/13/1 391/9/1 392/8/1
f 393/4/1 394/3/1 395/10/1 396/11/1
f 397/4/1 398/3/1 399/10/1 400/11/1
f 401/4/1 402/3/1 403/10/1 404/11/1
f 405/4/1 406/3/1 407/10/1 408/11/1
f 409/4/1 410/3/1 411/10/1 412/11/1
f 413/12/1 414/13/1 415/9/1 416/8/1
f 417/3/1 418/6/1 419/15/1 420/10/1
f 421/3/1 422/6/1 423/15/1 424/10/1
f 425/4/1 426/3/1 427/10/1 428/11/1
f 429/3/1 430/6/1 431/15/1 432/10/1
f 433/12/1 434/13/1 435/9/1 436/8/1
f 437/4/1 438/3/1 439/10/1 440/11/1
f 441/4/1 442/3/1 443/10/1 444/11/1
f 445/14/1 446/12/1 447/8/1 448/7/1
f 449/12/1 450/13/1 451/9/1 452/8/1
f 453/4/1 454/3/1 455/10/1 456/11/1
f 457/3/1 458/6/1 459/15/1 460/10/1
f 461/7/1 462/8/1 463/2/1 464/1/1
f 465/8/1 466/9/1 467/5/1 468/2/1
f 469/8/1 470/9/1 471/5/1 472/2/1
f 473/12/1 474/13/1 475/9/1 476/8/1
f 477/14/1 478/12/1 479/8/1 480/7/1
f 481/12/1 482/13/1 483/9/1 484/8/1
f 485/3/1 486/6/1 487/15/1 488/10/1
f 489/3/1 490/6/1 491/15/1 492/10/1
f 493/12/1 494/13/1 495/9/1 496/8/1
f 497/3/1 498/6/1 499/15/1 500/10/1
f 501/14/1 502/12/1 503/8/1 504/7/1
f 505/14/1 506/12/1 507/8/1 508/7/1
f 509/12/1 510/13/1 511/9/1 512/8/1
f 513/3/1 514/6/1 515/15/1 516/10/1
f 517/3/1 518/6/1 519/15/1 520/10/1
f 521/3/1 522/6/1 523/15/1 524/10/1
f 525/3/1 526/6/1 527/15/1 528/10/1
f 529/3/1 530/6/1 531/15/1 532/10/1
f 533/8/1 534/9/1 535/5/1 536/2/1
f 537/3/1 538/6/1 539/15/1 540/10/1
f 541/7/1 542/8/1 543/2/1 544/1/1
f 545/8/1 546/9/1 547/5/1 548/2/1
f 549/7/1 550/8/1 551/2/1 552/1/1
f 553/3/1 554/6/1 555/15/1 556/10/1
f 557/12/1 558/13/1 559/9/1 560/8/1
f 561/8/1 562/9/1 563/5/1 564/2/1
f 565/14/1 566/12/1 567/8/1 568/7/1
f 569/12/1 570/13/1 571/9/1 572/8/1
f 573/14/1 574/12/1 575/8/1 576/7/1
f 577/12/1 578/13/1 579/9/1 580/8/1
f 581/14/1 582/12/1 583/8/1 584/7/1
f 585/1/1 586/2/1 587/3/1 588/4/1
f 589/2/1 590/5/1 591/6/1 592/3/1
f 593/3/1 594/6/1 595/15/1 596/10/1
f 597/3/1 598/6/1 599/15/1 600/10/1
f 601/2/1 602/5/1 603/6/1 604/3/1
f 605/1/1 606/2/1 607/3/1 608/4/1
f 609/4/1 610/3/1 611/10/1 612/11/1
f 613/3/1 614/6/1 615/15/1 616/10/1
f 617/3/1 618/6/1 619/15/1 620/10/1
f 621/3/1 622/6/1 623/15/1 624/10/1
f 625/3/1 626/6/1 627/15/1 628/10/1
f 629/2/1 630/5/1 631/6/1 632/3/1
f 633/3/1 634/6/1 635/15/1 636/10/1
f 637/3/1 638/6/1 639/15/1 640/10/1
f 641/3/1 642/6/1 643/15/1 644/10/1
f 645/3/1 646/6/1 647/15/1 648/10/1
f 649/3/1 650/6/1 651/15/1 652/10/1
f 653/3/1 654/6/1 655/15/1 656/10/1
f 657/8/1 658/9/1 659/5/1 660/2/1
f 661/3/1 662/6/1 663/15/1 664/10/1
f 665/3/1 666/6/1 667/15/1 668/10/1
f 669/3/1 670/6/1 671/15/1 672/10/1
f 673/7/1 674/8/1 675/2/1 676/1/1
f 677/3/1 678/6/1 679/15/1 680/10/1
f 681/3/1 682/6/1 683/15/1 684/10/1
f 685/14/1 686/12/1 687/8/1 688/7/1
f 689/3/1 690/6/1 691/15/1 692/10/1
f 693/7/1 694/8/1 695/2/1 696/1/1
f 697/8/1 698/9/1 699/5/1 700/2/1
f 701/14/1 702/12/1 703/8/1 704/7/1
f 705/7/1 706/8/1 707/2/1 708/1/1
f 709/8/1 710/9/1 711/5/1 712/2/1
f 713/7/1 714/8/1 715/2/1 716/1/1
f 717/14/1 718/12/1 719/8/1 720/7/1
f 721/12/1 722/13/1 723/9/1 724/8/1
f 725/14/1 726/12/1 727/8/1 728/7/1
f 729/8/1 730/9/1 731/5/1 732/2/1
f 733/14/1 734/12/1 735/8/1 736/7/1
f 737/14/1 738/12/1 739/8/1 740/7/1

