# Tiled2Unity generated file. Do not modify by hand.
# Wavefront file for 'untitled_mesh_0002.obj'

# Vertices (Count = 120)
v -432 -288 0
v -480 -288 0
v -480 -240 0
v -432 -240 0
v -480 -288 0
v -528 -288 0
v -528 -240 0
v -480 -240 0
v -1488 -288 0
v -1536 -288 0
v -1536 -240 0
v -1488 -240 0
v -432 -336 0
v -480 -336 0
v -480 -288 0
v -432 -288 0
v -480 -336 0
v -528 -336 0
v -528 -288 0
v -480 -288 0
v -288 -576 0
v -336 -576 0
v -336 -528 0
v -288 -528 0
v -960 -720 0
v -1008 -720 0
v -1008 -672 0
v -960 -672 0
v -1008 -720 0
v -1056 -720 0
v -1056 -672 0
v -1008 -672 0
v -1152 -720 0
v -1200 -720 0
v -1200 -672 0
v -1152 -672 0
v -960 -768 0
v -1008 -768 0
v -1008 -720 0
v -960 -720 0
v -1008 -768 0
v -1056 -768 0
v -1056 -720 0
v -1008 -720 0
v -336 -1008 0
v -384 -1008 0
v -384 -960 0
v -336 -960 0
v -576 -1008 0
v -624 -1008 0
v -624 -960 0
v -576 -960 0
v -624 -1008 0
v -672 -1008 0
v -672 -960 0
v -624 -960 0
v -288 -1056 0
v -336 -1056 0
v -336 -1008 0
v -288 -1008 0
v -576 -1056 0
v -624 -1056 0
v -624 -1008 0
v -576 -1008 0
v -624 -1056 0
v -672 -1056 0
v -672 -1008 0
v -624 -1008 0
v -336 -1104 0
v -384 -1104 0
v -384 -1056 0
v -336 -1056 0
v -1488 -1104 0
v -1536 -1104 0
v -1536 -1056 0
v -1488 -1056 0
v -1536 -1104 0
v -1584 -1104 0
v -1584 -1056 0
v -1536 -1056 0
v 0 -1152 0
v -48 -1152 0
v -48 -1104 0
v 0 -1104 0
v -912 -1152 0
v -960 -1152 0
v -960 -1104 0
v -912 -1104 0
v -1488 -1152 0
v -1536 -1152 0
v -1536 -1104 0
v -1488 -1104 0
v -1536 -1152 0
v -1584 -1152 0
v -1584 -1104 0
v -1536 -1104 0
v -1104 -1296 0
v -1152 -1296 0
v -1152 -1248 0
v -1104 -1248 0
v -1152 -1296 0
v -1200 -1296 0
v -1200 -1248 0
v -1152 -1248 0
v -1104 -1344 0
v -1152 -1344 0
v -1152 -1296 0
v -1104 -1296 0
v -1152 -1344 0
v -1200 -1344 0
v -1200 -1296 0
v -1152 -1296 0
v -1776 -1392 0
v -1824 -1392 0
v -1824 -1344 0
v -1776 -1344 0
v -1536 -1440 0
v -1584 -1440 0
v -1584 -1392 0
v -1536 -1392 0

# Texture cooridinates (Count = 17)
vt 0.5 0.3333333
vt 0.5625 0.3333333
vt 0.5625 0.4166667
vt 0.5 0.4166667
vt 0.625 0.3333333
vt 0.625 0.4166667
vt 0.5625 0.5
vt 0.5 0.5
vt 0.5 0.25
vt 0.5625 0.25
vt 0.625 0.25
vt 0.75 0.3333333
vt 0.8125 0.3333333
vt 0.8125 0.4166667
vt 0.75 0.4166667
vt 0.8125 0.5
vt 0.75 0.5

# Normal
vn 0 0 -1

# Mesh description
g untitled_mesh_0002

# Faces
f 1/1/1 2/2/1 3/3/1 4/4/1
f 5/2/1 6/5/1 7/6/1 8/3/1
f 9/4/1 10/3/1 11/7/1 12/8/1
f 13/9/1 14/10/1 15/2/1 16/1/1
f 17/10/1 18/11/1 19/5/1 20/2/1
f 21/12/1 22/13/1 23/14/1 24/15/1
f 25/1/1 26/2/1 27/3/1 28/4/1
f 29/2/1 30/5/1 31/6/1 32/3/1
f 33/4/1 34/3/1 35/7/1 36/8/1
f 37/9/1 38/10/1 39/2/1 40/1/1
f 41/10/1 42/11/1 43/5/1 44/2/1
f 45/4/1 46/3/1 47/7/1 48/8/1
f 49/1/1 50/2/1 51/3/1 52/4/1
f 53/2/1 54/5/1 55/6/1 56/3/1
f 57/4/1 58/3/1 59/7/1 60/8/1
f 61/9/1 62/10/1 63/2/1 64/1/1
f 65/10/1 66/11/1 67/5/1 68/2/1
f 69/4/1 70/3/1 71/7/1 72/8/1
f 73/1/1 74/2/1 75/3/1 76/4/1
f 77/2/1 78/5/1 79/6/1 80/3/1
f 81/4/1 82/3/1 83/7/1 84/8/1
f 85/4/1 86/3/1 87/7/1 88/8/1
f 89/9/1 90/10/1 91/2/1 92/1/1
f 93/10/1 94/11/1 95/5/1 96/2/1
f 97/1/1 98/2/1 99/3/1 100/4/1
f 101/2/1 102/5/1 103/6/1 104/3/1
f 105/9/1 106/10/1 107/2/1 108/1/1
f 109/10/1 110/11/1 111/5/1 112/2/1
f 113/15/1 114/14/1 115/16/1 116/17/1
f 117/15/1 118/14/1 119/16/1 120/17/1

