# Tiled2Unity generated file. Do not modify by hand.
# Wavefront file for 'untitled_mesh_0008.obj'

# Vertices (Count = 72)
v -1632 -624 0
v -1680 -624 0
v -1680 -576 0
v -1632 -576 0
v -1344 -672 0
v -1392 -672 0
v -1392 -624 0
v -1344 -624 0
v -1632 -672 0
v -1680 -672 0
v -1680 -624 0
v -1632 -624 0
v -1344 -720 0
v -1392 -720 0
v -1392 -672 0
v -1344 -672 0
v -1632 -720 0
v -1680 -720 0
v -1680 -672 0
v -1632 -672 0
v -1872 -720 0
v -1920 -720 0
v -1920 -672 0
v -1872 -672 0
v -1344 -768 0
v -1392 -768 0
v -1392 -720 0
v -1344 -720 0
v -1872 -768 0
v -1920 -768 0
v -1920 -720 0
v -1872 -720 0
v -1872 -816 0
v -1920 -816 0
v -1920 -768 0
v -1872 -768 0
v -1872 -864 0
v -1920 -864 0
v -1920 -816 0
v -1872 -816 0
v -1296 -912 0
v -1344 -912 0
v -1344 -864 0
v -1296 -864 0
v -1872 -912 0
v -1920 -912 0
v -1920 -864 0
v -1872 -864 0
v -1296 -960 0
v -1344 -960 0
v -1344 -912 0
v -1296 -912 0
v -1872 -960 0
v -1920 -960 0
v -1920 -912 0
v -1872 -912 0
v -1296 -1008 0
v -1344 -1008 0
v -1344 -960 0
v -1296 -960 0
v -1632 -1008 0
v -1680 -1008 0
v -1680 -960 0
v -1632 -960 0
v -1632 -1056 0
v -1680 -1056 0
v -1680 -1008 0
v -1632 -1008 0
v -1632 -1104 0
v -1680 -1104 0
v -1680 -1056 0
v -1632 -1056 0

# Texture cooridinates (Count = 8)
vt 0.875 0.5
vt 0.9375 0.5
vt 0.9375 0.5625
vt 0.875 0.5625
vt 0.875 0.4375
vt 0.9375 0.4375
vt 0.875 0.375
vt 0.9375 0.375

# Normal
vn 0 0 -1

# Mesh description
g untitled_mesh_0008

# Faces
f 1/1/1 2/2/1 3/3/1 4/4/1
f 5/1/1 6/2/1 7/3/1 8/4/1
f 9/5/1 10/6/1 11/2/1 12/1/1
f 13/5/1 14/6/1 15/2/1 16/1/1
f 17/7/1 18/8/1 19/6/1 20/5/1
f 21/1/1 22/2/1 23/3/1 24/4/1
f 25/7/1 26/8/1 27/6/1 28/5/1
f 29/5/1 30/6/1 31/2/1 32/1/1
f 33/7/1 34/8/1 35/6/1 36/5/1
f 37/1/1 38/2/1 39/3/1 40/4/1
f 41/1/1 42/2/1 43/3/1 44/4/1
f 45/5/1 46/6/1 47/2/1 48/1/1
f 49/5/1 50/6/1 51/2/1 52/1/1
f 53/7/1 54/8/1 55/6/1 56/5/1
f 57/7/1 58/8/1 59/6/1 60/5/1
f 61/1/1 62/2/1 63/3/1 64/4/1
f 65/5/1 66/6/1 67/2/1 68/1/1
f 69/7/1 70/8/1 71/6/1 72/5/1

